<?xml version="1.0" encoding="utf-8"?>
<!-- Generator: Adobe Illustrator 19.2.1, SVG Export Plug-In . SVG Version: 6.00 Build 0)  -->
<svg version="1.1" id="Слой_1" xmlns="http://www.w3.org/2000/svg" xmlns:xlink="http://www.w3.org/1999/xlink" x="0px" y="0px"
	 viewBox="0 0 49 64" style="enable-background:new 0 0 49 64;" xml:space="preserve">
<style type="text/css">
	.st0{fill:#0094E0;}
	.st1{fill:#FFFFFF;}
	.st2{filter:url(#Adobe_OpacityMaskFilter);}
	.st3{mask:url(#mask-2);}
	.st4{display:none;}
	.st5{display:inline;fill:#B0CB20;}
	.st6{display:inline;fill:#E41A4B;}
</style>
<title>boxberry</title>
<desc>Created with Sketch.</desc>
<g id="Artboard" transform="translate(-420.000000, -113.000000)">
	<g id="boxberry" transform="translate(420.000000, 113.000000)">
		<path id="Fill-1" class="st0" d="M46.2,35.1c-3.8,7-21.9,28.8-21.9,28.8S6.2,42.2,2.6,35.1C-3.4,23.7,1.3,8.5,13.4,2.6
			C16.9,0.8,20.7,0,24.4,0c9,0,17.6,4.9,21.9,13.3C49.8,20.4,50,28.3,46.2,35.1"/>
		<g id="Mask">
			<circle id="path-1_1_" class="st1" cx="24.5" cy="24.5" r="17.5"/>
		</g>
		<defs>
			<filter id="Adobe_OpacityMaskFilter" filterUnits="userSpaceOnUse" x="10" y="10" width="29" height="29">
				<feColorMatrix  type="matrix" values="1 0 0 0 0  0 1 0 0 0  0 0 1 0 0  0 0 0 1 0"/>
			</filter>
		</defs>
		<mask maskUnits="userSpaceOnUse" x="10" y="10" width="29" height="29" id="mask-2">
			<g class="st2">
				<circle id="path-1" class="st1" cx="24.5" cy="24.5" r="17.5"/>
			</g>
		</mask>
		<g class="st3">
			<g transform="translate(10.000000, 10.000000)" class="st4">
				<circle id="Oval" class="st5" cx="14.6" cy="3.4" r="3.4"/>
				<circle id="Oval-Copy-2" class="st6" cx="14.6" cy="14.4" r="3.4"/>
				<circle id="Oval-Copy-9" class="st6" cx="25.6" cy="14.4" r="3.4"/>
				<circle id="Oval-Copy-3" class="st6" cx="14.6" cy="25.6" r="3.4"/>
				<circle id="Oval-Copy-4" class="st6" cx="9" cy="20" r="3.4"/>
				<circle id="Oval-Copy-5" class="st6" cx="3.4" cy="14.4" r="3.4"/>
				<circle id="Oval-Copy-6" class="st6" cx="9" cy="9" r="3.4"/>
				<circle id="Oval-Copy-7" class="st6" cx="20" cy="9" r="3.4"/>
				<circle id="Oval-Copy-8" class="st6" cx="20" cy="20" r="3.4"/>
			</g>
		</g>
	</g>
</g>
</svg>
